<svg width="55" height="57" viewBox="0 0 55 57" fill="none" xmlns="http://www.w3.org/2000/svg">
<path d="M24.4967 20.038C28.7298 22.0692 32.0921 25.8896 33.7958 30.6316L32.3841 31.1388C33.1142 33.171 33.5173 35.3911 33.5173 37.7206C33.5173 40.0501 33.1142 42.2702 32.3841 44.3025L33.7958 44.8096C32.0921 49.5516 28.7298 53.372 24.4967 55.4032L23.8478 54.0508C21.9023 54.9844 19.7601 55.5 17.5087 55.5C15.2572 55.5 13.115 54.9844 11.1695 54.0508L10.5206 55.4032C6.28748 53.372 2.9252 49.5516 1.22154 44.8096L2.6332 44.3025C1.90307 42.2702 1.5 40.0501 1.5 37.7206C1.5 35.3911 1.90307 33.171 2.6332 31.1388L1.22154 30.6316C2.9252 25.8896 6.28748 22.0692 10.5206 20.038L11.1695 21.3904C13.115 20.4568 15.2572 19.9412 17.5087 19.9412C19.7601 19.9412 21.9023 20.4568 23.8478 21.3904L24.4967 20.038Z" stroke="#043873" stroke-width="3" stroke-dasharray="15 15"/>
<path d="M34.5093 1.58884C38.7686 3.61579 42.153 7.43372 43.8699 12.1747L42.4596 12.6854C43.1968 14.721 43.6038 16.9453 43.6038 19.2794C43.6038 21.6135 43.1968 23.8378 42.4596 25.8734L43.8699 26.3842C42.153 31.1251 38.7686 34.943 34.5093 36.97L33.8647 35.6155C31.9112 36.5452 29.7604 37.0588 27.5 37.0588C25.2396 37.0588 23.0888 36.5452 21.1353 35.6155L20.4907 36.97C16.2314 34.943 12.847 31.1251 11.1301 26.3841L12.5404 25.8734C11.8032 23.8378 11.3962 21.6135 11.3962 19.2794C11.3962 16.9453 11.8032 14.721 12.5404 12.6854L11.1301 12.1747C12.847 7.43372 16.2314 3.6158 20.4907 1.58884L21.1353 2.94329C23.0888 2.01361 25.2396 1.5 27.5 1.5C29.7604 1.5 31.9112 2.01361 33.8647 2.94329L34.5093 1.58884Z" stroke="#043873" stroke-width="3" stroke-dasharray="15 15"/>
<path d="M44.4794 20.038C48.7125 22.0692 52.0748 25.8896 53.7785 30.6316L52.3668 31.1388C53.0969 33.171 53.5 35.3911 53.5 37.7206C53.5 40.0501 53.0969 42.2702 52.3668 44.3025L53.7785 44.8096C52.0748 49.5516 48.7125 53.372 44.4794 55.4032L43.8305 54.0508C41.885 54.9844 39.7428 55.5 37.4914 55.5C35.2399 55.5 33.0977 54.9844 31.1523 54.0508L30.5033 55.4032C26.2702 53.372 22.9079 49.5516 21.2043 44.8096L22.6159 44.3025C21.8858 42.2702 21.4827 40.0501 21.4827 37.7206C21.4827 35.3911 21.8858 33.171 22.6159 31.1388L21.2042 30.6316C22.9079 25.8896 26.2702 22.0692 30.5033 20.038L31.1523 21.3904C33.0977 20.4568 35.2399 19.9412 37.4914 19.9412C39.7428 19.9412 41.885 20.4568 43.8305 21.3904L44.4794 20.038Z" stroke="#043873" stroke-width="3" stroke-dasharray="15 15"/>
</svg>
